<svg width="40" height="40" viewBox="0 0 40 40" fill="none" xmlns="http://www.w3.org/2000/svg">
<path d="M37.7995 0H2.19951C1.61604 0 1.05646 0.231785 0.643877 0.644365C0.231297 1.05695 -0.000488281 1.61652 -0.000488281 2.2V37.8C-0.000488281 38.3835 0.231297 38.9431 0.643877 39.3556C1.05646 39.7682 1.61604 40 2.19951 40H21.3595V24.5H16.1595V18.5H21.3595V14C21.2518 12.9435 21.3765 11.8763 21.7249 10.8731C22.0734 9.8699 22.637 8.95509 23.3764 8.19282C24.1158 7.43055 25.0131 6.83928 26.0052 6.46048C26.9973 6.08167 28.0602 5.9245 29.1195 6C30.6762 5.98925 32.2322 6.06939 33.7795 6.24V11.64H30.5995C28.0795 11.64 27.5995 12.84 27.5995 14.58V18.44H33.5995L32.8195 24.44H27.5995V40H37.7995C38.0884 40 38.3745 39.9431 38.6414 39.8325C38.9083 39.722 39.1509 39.5599 39.3551 39.3556C39.5594 39.1513 39.7215 38.9088 39.832 38.6419C39.9426 38.375 39.9995 38.0889 39.9995 37.8V2.2C39.9995 1.91109 39.9426 1.62501 39.832 1.3581C39.7215 1.09118 39.5594 0.848654 39.3551 0.644365C39.1509 0.440076 38.9083 0.278026 38.6414 0.167465C38.3745 0.0569049 38.0884 0 37.7995 0Z" fill="white"/>
</svg>
