<svg width="41" height="40" viewBox="0 0 41 40" fill="none" xmlns="http://www.w3.org/2000/svg">
<path d="M22.8181 0C25.068 0.00599985 26.21 0.0179996 27.196 0.0459989L27.584 0.0599985C28.032 0.0759981 28.4739 0.0959976 29.0079 0.119997C31.1359 0.219995 32.5878 0.555987 33.8618 1.04997C35.1818 1.55796 36.2938 2.24595 37.4057 3.35592C38.4231 4.35536 39.21 5.56481 39.7117 6.89983C40.2057 8.1738 40.5416 9.62577 40.6416 11.7557C40.6656 12.2877 40.6856 12.7297 40.7016 13.1797L40.7136 13.5677C40.7436 14.5516 40.7556 15.6936 40.7596 17.9436L40.7616 19.4355V22.0555C40.7665 23.5142 40.7512 24.973 40.7156 26.4314L40.7036 26.8194C40.6876 27.2693 40.6676 27.7113 40.6436 28.2433C40.5436 30.3733 40.2037 31.8232 39.7117 33.0992C39.21 34.4342 38.4231 35.6437 37.4057 36.6431C36.4063 37.6605 35.1968 38.4474 33.8618 38.9491C32.5878 39.443 31.1359 39.779 29.0079 39.879L27.584 39.939L27.196 39.951C26.21 39.979 25.068 39.993 22.8181 39.997L21.3261 39.999H18.7082C17.2487 40.0042 15.7893 39.9888 14.3303 39.953L13.9423 39.941C13.4675 39.9231 12.9929 39.9024 12.5183 39.879C10.3904 39.779 8.93841 39.443 7.66245 38.9491C6.32814 38.4472 5.11939 37.6602 4.12053 36.6431C3.10245 35.6439 2.31479 34.4344 1.81259 33.0992C1.3186 31.8252 0.982607 30.3733 0.882609 28.2433L0.822611 26.8194L0.812611 26.4314C0.775744 24.973 0.759076 23.5143 0.762612 22.0555V17.9436C0.757077 16.4848 0.771744 15.026 0.806611 13.5677L0.820611 13.1797C0.83661 12.7297 0.85661 12.2877 0.880609 11.7557C0.980607 9.62577 1.3166 8.1758 1.81059 6.89983C2.31396 5.56426 3.103 4.35477 4.12253 3.35592C5.12081 2.33904 6.32885 1.55211 7.66245 1.04997C8.93841 0.555987 10.3884 0.219995 12.5183 0.119997C13.0503 0.0959976 13.4943 0.0759981 13.9423 0.0599985L14.3303 0.0479987C15.7886 0.0124651 17.2474 -0.00286933 18.7062 0.00199981L22.8181 0ZM20.7621 9.99976C18.11 9.99976 15.5666 11.0533 13.6912 12.9286C11.8159 14.8039 10.7624 17.3474 10.7624 19.9995C10.7624 22.6516 11.8159 25.1951 13.6912 27.0704C15.5666 28.9457 18.11 29.9993 20.7621 29.9993C23.4142 29.9993 25.9577 28.9457 27.833 27.0704C29.7083 25.1951 30.7619 22.6516 30.7619 19.9995C30.7619 17.3474 29.7083 14.8039 27.833 12.9286C25.9577 11.0533 23.4142 9.99976 20.7621 9.99976ZM20.7621 13.9997C21.55 13.9995 22.3303 14.1546 23.0582 14.456C23.7862 14.7574 24.4477 15.1992 25.005 15.7563C25.5622 16.3133 26.0042 16.9747 26.3059 17.7025C26.6075 18.4304 26.7628 19.2106 26.763 19.9985C26.7631 20.7864 26.6081 21.5667 26.3067 22.2946C26.0053 23.0226 25.5634 23.6841 25.0064 24.2413C24.4493 24.7986 23.788 25.2406 23.0601 25.5423C22.3322 25.8439 21.552 25.9992 20.7641 25.9994C19.1729 25.9994 17.6468 25.3672 16.5216 24.2421C15.3964 23.1169 14.7643 21.5908 14.7643 19.9995C14.7643 18.4083 15.3964 16.8822 16.5216 15.757C17.6468 14.6318 19.1729 13.9997 20.7641 13.9997M31.2639 6.99983C30.6008 6.99983 29.965 7.26322 29.4961 7.73205C29.0273 8.20088 28.7639 8.83675 28.7639 9.49977C28.7639 10.1628 29.0273 10.7987 29.4961 11.2675C29.965 11.7363 30.6008 11.9997 31.2639 11.9997C31.9269 11.9997 32.5628 11.7363 33.0316 11.2675C33.5004 10.7987 33.7638 10.1628 33.7638 9.49977C33.7638 8.83675 33.5004 8.20088 33.0316 7.73205C32.5628 7.26322 31.9269 6.99983 31.2639 6.99983Z" fill="white"/>
</svg>
