<svg width="40" height="40" viewBox="0 0 40 40" fill="none" xmlns="http://www.w3.org/2000/svg">
<path d="M37.0418 0.000279658H2.95726C2.57412 -0.00500951 2.19368 0.0647738 1.83767 0.205644C1.48167 0.346515 1.15706 0.555713 0.882404 0.821292C0.607744 1.08687 0.388408 1.40363 0.23692 1.75347C0.085432 2.10332 0.00476 2.4794 -0.000488281 2.86024V37.1398C0.00476 37.5206 0.085432 37.8967 0.23692 38.2465C0.388408 38.5964 0.607744 38.9131 0.882404 39.1787C1.15706 39.4443 1.48167 39.6535 1.83767 39.7944C2.19368 39.9352 2.57412 40.005 2.95726 39.9997H37.0418C37.4249 40.005 37.8053 39.9352 38.1614 39.7944C38.5174 39.6535 38.842 39.4443 39.1166 39.1787C39.3913 38.9131 39.6106 38.5964 39.7621 38.2465C39.9136 37.8967 39.9943 37.5206 39.9995 37.1398V2.86024C39.9943 2.4794 39.9136 2.10332 39.7621 1.75347C39.6106 1.40363 39.3913 1.08687 39.1166 0.821292C38.842 0.555713 38.5174 0.346515 38.1614 0.205644C37.8053 0.0647738 37.4249 -0.00500951 37.0418 0.000279658ZM12.1323 33.4798H6.09609V15.4801H12.1323V33.4798ZM9.1142 12.9601C8.28173 12.9601 7.48335 12.6314 6.89471 12.0463C6.30606 11.4612 5.97537 10.6676 5.97537 9.84014C5.97537 9.01268 6.30606 8.2191 6.89471 7.634C7.48335 7.04889 8.28173 6.72019 9.1142 6.72019C9.55624 6.67036 10.0039 6.71389 10.4278 6.84795C10.8518 6.98201 11.2424 7.20356 11.5743 7.4981C11.9061 7.79264 12.1716 8.15352 12.3534 8.55712C12.5352 8.96072 12.6291 9.39794 12.6291 9.84014C12.6291 10.2823 12.5352 10.7196 12.3534 11.1232C12.1716 11.5268 11.9061 11.8876 11.5743 12.1822C11.2424 12.4767 10.8518 12.6983 10.4278 12.8323C10.0039 12.9664 9.55624 13.0099 9.1142 12.9601ZM33.9029 33.4798H27.8667V23.8199C27.8667 21.4 27.0015 19.82 24.8084 19.82C24.1296 19.8249 23.4687 20.0366 22.9147 20.4263C22.3606 20.8161 21.9401 21.3653 21.7098 22C21.5523 22.47 21.4841 22.9651 21.5086 23.46V33.4598H15.4723V15.4601H21.5086V18C22.0569 17.0543 22.8545 16.2751 23.8153 15.7465C24.7761 15.2178 25.8638 14.9598 26.9613 15.0001C30.9854 15.0001 33.9029 17.58 33.9029 23.12V33.4798Z" fill="white"/>
</svg>
