<svg width="40" height="40" viewBox="0 0 40 40" fill="none" xmlns="http://www.w3.org/2000/svg">
<path d="M5.7138 0C2.56201 0 -0.000488281 2.5625 -0.000488281 5.71429V34.2857C-0.000488281 37.4375 2.56201 40 5.7138 40H34.2852C37.437 40 39.9995 37.4375 39.9995 34.2857V5.71429C39.9995 2.5625 37.437 0 34.2852 0H5.7138ZM32.2406 7.5L22.9727 18.0893L33.8745 32.5H25.3388L18.6602 23.7589L11.0084 32.5H6.76737L16.6781 21.1696L6.22273 7.5H14.9727L21.0174 15.4911L27.9995 7.5H32.2406ZM28.8656 29.9643L13.6959 9.90179H11.1692L26.5084 29.9643H28.8656Z" fill="white"/>
</svg>
