<svg width="41" height="40" viewBox="0 0 41 40" fill="none" xmlns="http://www.w3.org/2000/svg">
<path d="M25.8841 0C28.9241 0 31.3725 -6.27417e-08 33.3008 0.326316C35.3008 0.667368 36.9841 1.39368 38.3208 3.08421C39.6591 4.77263 40.2341 6.90105 40.5041 9.42737C40.7624 11.8611 40.7625 14.9537 40.7625 18.7937V21.2063C40.7625 25.0463 40.7624 28.139 40.5041 30.5747C40.2341 33.1011 39.6591 35.2274 38.3208 36.9158C36.9841 38.6063 35.3008 39.3326 33.2991 39.6737C31.3724 40 28.9241 40 25.8841 40H15.6408C12.6008 40 10.1525 40 8.22412 39.6737C6.22412 39.3326 4.54078 38.6063 3.20245 36.9158C1.86578 35.2274 1.29078 33.1011 1.02078 30.5726C0.762451 28.1389 0.762451 25.0463 0.762451 21.2063V18.7937C0.762451 14.9537 0.762451 11.8611 1.02078 9.42526C1.29078 6.89895 1.86578 4.77263 3.20412 3.08211C4.54078 1.39368 6.22578 0.667368 8.22578 0.326316C10.1525 -6.27417e-08 12.6008 0 15.6408 0H25.8841ZM28.2608 20.0021L16.2625 11.2253V28.7789L28.2608 20.0021Z" fill="white"/>
</svg>
